<mxfile host="app.diagrams.net" modified="2022-10-13T20:52:43.609Z" agent="5.0 (Windows NT 10.0; Win64; x64) AppleWebKit/537.36 (KHTML, like Gecko) Chrome/106.0.0.0 Safari/537.36" etag="rxqBkia_DKIN_DbQvhrL" version="20.4.0" type="github">
  <diagram id="6sawWgEjeu06iD6EJekM" name="Page-1">
    <mxGraphModel dx="2770" dy="1657" grid="0" gridSize="10" guides="1" tooltips="1" connect="1" arrows="1" fold="1" page="0" pageScale="1" pageWidth="827" pageHeight="1169" math="0" shadow="0">
      <root>
        <mxCell id="0" />
        <mxCell id="1" parent="0" />
        <mxCell id="5s7QA5Iz82F6_0--fALQ-1" value="" style="edgeStyle=orthogonalEdgeStyle;rounded=0;orthogonalLoop=1;jettySize=auto;html=1;" parent="1" source="5s7QA5Iz82F6_0--fALQ-2" target="5s7QA5Iz82F6_0--fALQ-5" edge="1">
          <mxGeometry relative="1" as="geometry" />
        </mxCell>
        <mxCell id="5s7QA5Iz82F6_0--fALQ-2" value="" style="ellipse;whiteSpace=wrap;html=1;direction=east;fillColor=#050505;" parent="1" vertex="1">
          <mxGeometry x="305" y="-150" width="30" height="30" as="geometry" />
        </mxCell>
        <mxCell id="5s7QA5Iz82F6_0--fALQ-3" value="" style="edgeStyle=orthogonalEdgeStyle;rounded=0;orthogonalLoop=1;jettySize=auto;html=1;exitX=0.5;exitY=1;exitDx=0;exitDy=0;" parent="1" source="oW9pXGmg9QiIXVyOaxMY-1" target="5s7QA5Iz82F6_0--fALQ-10" edge="1">
          <mxGeometry relative="1" as="geometry" />
        </mxCell>
        <mxCell id="5s7QA5Iz82F6_0--fALQ-4" value="[user is logged in]" style="edgeLabel;html=1;align=center;verticalAlign=middle;resizable=0;points=[];" parent="5s7QA5Iz82F6_0--fALQ-3" vertex="1" connectable="0">
          <mxGeometry x="-0.25" y="-1" relative="1" as="geometry">
            <mxPoint as="offset" />
          </mxGeometry>
        </mxCell>
        <mxCell id="DjvW2KqbD2a2FRJsJdx9-3" style="edgeStyle=orthogonalEdgeStyle;rounded=0;orthogonalLoop=1;jettySize=auto;html=1;entryX=0.5;entryY=0;entryDx=0;entryDy=0;exitX=1;exitY=0.5;exitDx=0;exitDy=0;" parent="1" source="oW9pXGmg9QiIXVyOaxMY-1" target="DjvW2KqbD2a2FRJsJdx9-2" edge="1">
          <mxGeometry relative="1" as="geometry" />
        </mxCell>
        <mxCell id="DjvW2KqbD2a2FRJsJdx9-5" value="[user is not logged in]" style="edgeLabel;html=1;align=center;verticalAlign=middle;resizable=0;points=[];" parent="DjvW2KqbD2a2FRJsJdx9-3" vertex="1" connectable="0">
          <mxGeometry x="-0.5349" y="-2" relative="1" as="geometry">
            <mxPoint x="32" y="-2" as="offset" />
          </mxGeometry>
        </mxCell>
        <mxCell id="oW9pXGmg9QiIXVyOaxMY-2" style="edgeStyle=orthogonalEdgeStyle;rounded=0;orthogonalLoop=1;jettySize=auto;html=1;exitX=0.5;exitY=1;exitDx=0;exitDy=0;entryX=0.5;entryY=0;entryDx=0;entryDy=0;" edge="1" parent="1" source="5s7QA5Iz82F6_0--fALQ-5" target="oW9pXGmg9QiIXVyOaxMY-1">
          <mxGeometry relative="1" as="geometry" />
        </mxCell>
        <mxCell id="5s7QA5Iz82F6_0--fALQ-5" value="Open app" style="rounded=1;whiteSpace=wrap;html=1;fillColor=#FFFFFF;" parent="1" vertex="1">
          <mxGeometry x="260" y="-70" width="120" height="60" as="geometry" />
        </mxCell>
        <mxCell id="5s7QA5Iz82F6_0--fALQ-21" style="edgeStyle=orthogonalEdgeStyle;rounded=0;orthogonalLoop=1;jettySize=auto;html=1;entryX=0.5;entryY=0;entryDx=0;entryDy=0;exitX=0.5;exitY=1;exitDx=0;exitDy=0;" parent="1" source="5s7QA5Iz82F6_0--fALQ-10" target="5s7QA5Iz82F6_0--fALQ-35" edge="1">
          <mxGeometry relative="1" as="geometry">
            <mxPoint x="375" y="430" as="targetPoint" />
            <Array as="points">
              <mxPoint x="320" y="330" />
              <mxPoint x="1020" y="330" />
            </Array>
          </mxGeometry>
        </mxCell>
        <mxCell id="5s7QA5Iz82F6_0--fALQ-22" style="edgeStyle=orthogonalEdgeStyle;rounded=0;orthogonalLoop=1;jettySize=auto;html=1;entryX=0.5;entryY=0;entryDx=0;entryDy=0;exitX=0;exitY=0.5;exitDx=0;exitDy=0;" parent="1" source="5s7QA5Iz82F6_0--fALQ-35" target="5s7QA5Iz82F6_0--fALQ-12" edge="1">
          <mxGeometry relative="1" as="geometry">
            <Array as="points">
              <mxPoint x="760" y="400" />
            </Array>
          </mxGeometry>
        </mxCell>
        <mxCell id="5s7QA5Iz82F6_0--fALQ-26" value="[user opens meals area]" style="edgeLabel;html=1;align=center;verticalAlign=middle;resizable=0;points=[];" parent="5s7QA5Iz82F6_0--fALQ-22" vertex="1" connectable="0">
          <mxGeometry x="0.746" y="-1" relative="1" as="geometry">
            <mxPoint x="1" y="-10" as="offset" />
          </mxGeometry>
        </mxCell>
        <mxCell id="5s7QA5Iz82F6_0--fALQ-23" style="edgeStyle=orthogonalEdgeStyle;rounded=0;orthogonalLoop=1;jettySize=auto;html=1;entryX=0.5;entryY=0;entryDx=0;entryDy=0;exitX=1;exitY=0.5;exitDx=0;exitDy=0;" parent="1" source="5s7QA5Iz82F6_0--fALQ-35" target="5s7QA5Iz82F6_0--fALQ-16" edge="1">
          <mxGeometry relative="1" as="geometry">
            <Array as="points">
              <mxPoint x="1260" y="400" />
            </Array>
          </mxGeometry>
        </mxCell>
        <mxCell id="5s7QA5Iz82F6_0--fALQ-28" value="[user opens wellbeing area]" style="edgeLabel;html=1;align=center;verticalAlign=middle;resizable=0;points=[];" parent="5s7QA5Iz82F6_0--fALQ-23" vertex="1" connectable="0">
          <mxGeometry x="0.746" y="-1" relative="1" as="geometry">
            <mxPoint x="1" y="-9" as="offset" />
          </mxGeometry>
        </mxCell>
        <mxCell id="5s7QA5Iz82F6_0--fALQ-10" value="Click on appropriate area" style="rounded=1;whiteSpace=wrap;html=1;fillColor=#FFFFFF;" parent="1" vertex="1">
          <mxGeometry x="260" y="240" width="120" height="60" as="geometry" />
        </mxCell>
        <mxCell id="5s7QA5Iz82F6_0--fALQ-30" value="" style="edgeStyle=orthogonalEdgeStyle;rounded=0;orthogonalLoop=1;jettySize=auto;html=1;" parent="1" source="5s7QA5Iz82F6_0--fALQ-12" target="5s7QA5Iz82F6_0--fALQ-29" edge="1">
          <mxGeometry relative="1" as="geometry">
            <Array as="points">
              <mxPoint x="760" y="790" />
              <mxPoint x="110" y="790" />
            </Array>
          </mxGeometry>
        </mxCell>
        <mxCell id="5s7QA5Iz82F6_0--fALQ-12" value="Display meal items" style="rounded=1;whiteSpace=wrap;html=1;fillColor=#FFFFFF;" parent="1" vertex="1">
          <mxGeometry x="700" y="610" width="120" height="60" as="geometry" />
        </mxCell>
        <mxCell id="5s7QA5Iz82F6_0--fALQ-60" style="edgeStyle=orthogonalEdgeStyle;rounded=0;orthogonalLoop=1;jettySize=auto;html=1;entryX=0.5;entryY=0;entryDx=0;entryDy=0;" parent="1" source="5s7QA5Iz82F6_0--fALQ-16" target="5s7QA5Iz82F6_0--fALQ-57" edge="1">
          <mxGeometry relative="1" as="geometry">
            <Array as="points">
              <mxPoint x="1260" y="870" />
            </Array>
          </mxGeometry>
        </mxCell>
        <mxCell id="5s7QA5Iz82F6_0--fALQ-16" value="Display wellbeing items" style="rounded=1;whiteSpace=wrap;html=1;fillColor=#FFFFFF;" parent="1" vertex="1">
          <mxGeometry x="1210" y="610" width="120" height="60" as="geometry" />
        </mxCell>
        <mxCell id="5s7QA5Iz82F6_0--fALQ-52" style="edgeStyle=orthogonalEdgeStyle;rounded=0;orthogonalLoop=1;jettySize=auto;html=1;" parent="1" source="5s7QA5Iz82F6_0--fALQ-24" edge="1">
          <mxGeometry relative="1" as="geometry">
            <mxPoint x="920" y="760" as="targetPoint" />
          </mxGeometry>
        </mxCell>
        <mxCell id="5s7QA5Iz82F6_0--fALQ-24" value="Display exercise items" style="rounded=1;whiteSpace=wrap;html=1;fillColor=#FFFFFF;" parent="1" vertex="1">
          <mxGeometry x="860" y="610" width="120" height="60" as="geometry" />
        </mxCell>
        <mxCell id="5s7QA5Iz82F6_0--fALQ-32" value="" style="edgeStyle=orthogonalEdgeStyle;rounded=0;orthogonalLoop=1;jettySize=auto;html=1;" parent="1" source="5s7QA5Iz82F6_0--fALQ-29" target="5s7QA5Iz82F6_0--fALQ-31" edge="1">
          <mxGeometry relative="1" as="geometry" />
        </mxCell>
        <mxCell id="5s7QA5Iz82F6_0--fALQ-29" value="Select option to add a meal" style="rounded=1;whiteSpace=wrap;html=1;fillColor=#FFFFFF;" parent="1" vertex="1">
          <mxGeometry x="50" y="850" width="120" height="60" as="geometry" />
        </mxCell>
        <mxCell id="5s7QA5Iz82F6_0--fALQ-34" value="" style="edgeStyle=orthogonalEdgeStyle;rounded=0;orthogonalLoop=1;jettySize=auto;html=1;" parent="1" source="5s7QA5Iz82F6_0--fALQ-31" target="5s7QA5Iz82F6_0--fALQ-33" edge="1">
          <mxGeometry relative="1" as="geometry" />
        </mxCell>
        <mxCell id="5s7QA5Iz82F6_0--fALQ-31" value="Enter ingredients for meal and confirm" style="rounded=1;whiteSpace=wrap;html=1;fillColor=#FFFFFF;" parent="1" vertex="1">
          <mxGeometry x="50" y="1110" width="120" height="60" as="geometry" />
        </mxCell>
        <mxCell id="oW9pXGmg9QiIXVyOaxMY-7" style="edgeStyle=orthogonalEdgeStyle;rounded=0;orthogonalLoop=1;jettySize=auto;html=1;exitX=0.5;exitY=1;exitDx=0;exitDy=0;entryX=0;entryY=0.5;entryDx=0;entryDy=0;" edge="1" parent="1" source="5s7QA5Iz82F6_0--fALQ-33" target="oW9pXGmg9QiIXVyOaxMY-5">
          <mxGeometry relative="1" as="geometry" />
        </mxCell>
        <mxCell id="5s7QA5Iz82F6_0--fALQ-33" value="Display new item" style="rounded=1;whiteSpace=wrap;html=1;fillColor=#FFFFFF;" parent="1" vertex="1">
          <mxGeometry x="700" y="1183" width="120" height="60" as="geometry" />
        </mxCell>
        <mxCell id="5s7QA5Iz82F6_0--fALQ-46" style="edgeStyle=orthogonalEdgeStyle;rounded=0;orthogonalLoop=1;jettySize=auto;html=1;exitX=0.5;exitY=1;exitDx=0;exitDy=0;" parent="1" source="5s7QA5Iz82F6_0--fALQ-35" edge="1">
          <mxGeometry relative="1" as="geometry">
            <mxPoint x="995" y="445" as="sourcePoint" />
            <mxPoint x="1020" y="520" as="targetPoint" />
            <Array as="points">
              <mxPoint x="1020" y="520" />
            </Array>
          </mxGeometry>
        </mxCell>
        <mxCell id="5s7QA5Iz82F6_0--fALQ-47" value="[user opens exercise area]" style="edgeLabel;html=1;align=center;verticalAlign=middle;resizable=0;points=[];" parent="5s7QA5Iz82F6_0--fALQ-46" vertex="1" connectable="0">
          <mxGeometry x="-0.602" y="-1" relative="1" as="geometry">
            <mxPoint x="1" y="14" as="offset" />
          </mxGeometry>
        </mxCell>
        <mxCell id="5s7QA5Iz82F6_0--fALQ-35" value="" style="rhombus;whiteSpace=wrap;html=1;" parent="1" vertex="1">
          <mxGeometry x="980" y="360" width="80" height="80" as="geometry" />
        </mxCell>
        <mxCell id="5s7QA5Iz82F6_0--fALQ-41" value="" style="edgeStyle=orthogonalEdgeStyle;rounded=0;orthogonalLoop=1;jettySize=auto;html=1;" parent="1" source="5s7QA5Iz82F6_0--fALQ-38" target="5s7QA5Iz82F6_0--fALQ-40" edge="1">
          <mxGeometry relative="1" as="geometry" />
        </mxCell>
        <mxCell id="5s7QA5Iz82F6_0--fALQ-38" value="Select option to add an exercise" style="rounded=1;whiteSpace=wrap;html=1;fillColor=#FFFFFF;" parent="1" vertex="1">
          <mxGeometry x="260" y="860" width="120" height="60" as="geometry" />
        </mxCell>
        <mxCell id="5s7QA5Iz82F6_0--fALQ-56" style="edgeStyle=orthogonalEdgeStyle;rounded=0;orthogonalLoop=1;jettySize=auto;html=1;entryX=0.5;entryY=0;entryDx=0;entryDy=0;" parent="1" source="5s7QA5Iz82F6_0--fALQ-40" target="5s7QA5Iz82F6_0--fALQ-55" edge="1">
          <mxGeometry relative="1" as="geometry" />
        </mxCell>
        <mxCell id="5s7QA5Iz82F6_0--fALQ-40" value="Enter information for exercise and confirm" style="rounded=1;whiteSpace=wrap;html=1;fillColor=#FFFFFF;" parent="1" vertex="1">
          <mxGeometry x="260" y="1050" width="120" height="60" as="geometry" />
        </mxCell>
        <mxCell id="5s7QA5Iz82F6_0--fALQ-50" value="" style="edgeStyle=orthogonalEdgeStyle;rounded=0;orthogonalLoop=1;jettySize=auto;html=1;" parent="1" source="5s7QA5Iz82F6_0--fALQ-43" target="5s7QA5Iz82F6_0--fALQ-44" edge="1">
          <mxGeometry relative="1" as="geometry" />
        </mxCell>
        <mxCell id="5s7QA5Iz82F6_0--fALQ-43" value="Connect to smart device" style="rounded=1;whiteSpace=wrap;html=1;fillColor=#FFFFFF;" parent="1" vertex="1">
          <mxGeometry x="1040" y="560" width="120" height="60" as="geometry" />
        </mxCell>
        <mxCell id="5s7QA5Iz82F6_0--fALQ-53" style="edgeStyle=orthogonalEdgeStyle;rounded=0;orthogonalLoop=1;jettySize=auto;html=1;" parent="1" source="5s7QA5Iz82F6_0--fALQ-44" edge="1">
          <mxGeometry relative="1" as="geometry">
            <mxPoint x="1100" y="760" as="targetPoint" />
          </mxGeometry>
        </mxCell>
        <mxCell id="5s7QA5Iz82F6_0--fALQ-44" value="Add missing exercises" style="rounded=1;whiteSpace=wrap;html=1;fillColor=#FFFFFF;" parent="1" vertex="1">
          <mxGeometry x="1040" y="660" width="120" height="60" as="geometry" />
        </mxCell>
        <mxCell id="5s7QA5Iz82F6_0--fALQ-45" value="" style="endArrow=none;html=1;rounded=0;" parent="1" edge="1">
          <mxGeometry width="50" height="50" relative="1" as="geometry">
            <mxPoint x="875" y="520" as="sourcePoint" />
            <mxPoint x="1165" y="520" as="targetPoint" />
          </mxGeometry>
        </mxCell>
        <mxCell id="5s7QA5Iz82F6_0--fALQ-48" value="" style="endArrow=classic;html=1;rounded=0;entryX=0.5;entryY=0;entryDx=0;entryDy=0;" parent="1" target="5s7QA5Iz82F6_0--fALQ-24" edge="1">
          <mxGeometry width="50" height="50" relative="1" as="geometry">
            <mxPoint x="920" y="520" as="sourcePoint" />
            <mxPoint x="1050" y="560" as="targetPoint" />
          </mxGeometry>
        </mxCell>
        <mxCell id="5s7QA5Iz82F6_0--fALQ-49" value="" style="endArrow=classic;html=1;rounded=0;entryX=0.5;entryY=0;entryDx=0;entryDy=0;" parent="1" target="5s7QA5Iz82F6_0--fALQ-43" edge="1">
          <mxGeometry width="50" height="50" relative="1" as="geometry">
            <mxPoint x="1100" y="520" as="sourcePoint" />
            <mxPoint x="930" y="560" as="targetPoint" />
          </mxGeometry>
        </mxCell>
        <mxCell id="5s7QA5Iz82F6_0--fALQ-51" value="" style="endArrow=none;html=1;rounded=0;" parent="1" edge="1">
          <mxGeometry width="50" height="50" relative="1" as="geometry">
            <mxPoint x="865" y="760" as="sourcePoint" />
            <mxPoint x="1155" y="760" as="targetPoint" />
          </mxGeometry>
        </mxCell>
        <mxCell id="5s7QA5Iz82F6_0--fALQ-54" value="" style="endArrow=classic;html=1;rounded=0;entryX=0.5;entryY=0;entryDx=0;entryDy=0;" parent="1" target="5s7QA5Iz82F6_0--fALQ-38" edge="1">
          <mxGeometry width="50" height="50" relative="1" as="geometry">
            <mxPoint x="1020" y="760" as="sourcePoint" />
            <mxPoint x="1020" y="790" as="targetPoint" />
            <Array as="points">
              <mxPoint x="1020" y="820" />
              <mxPoint x="320" y="820" />
            </Array>
          </mxGeometry>
        </mxCell>
        <mxCell id="oW9pXGmg9QiIXVyOaxMY-6" style="edgeStyle=orthogonalEdgeStyle;rounded=0;orthogonalLoop=1;jettySize=auto;html=1;exitX=0.5;exitY=1;exitDx=0;exitDy=0;entryX=0.5;entryY=0;entryDx=0;entryDy=0;" edge="1" parent="1" source="5s7QA5Iz82F6_0--fALQ-55" target="oW9pXGmg9QiIXVyOaxMY-5">
          <mxGeometry relative="1" as="geometry" />
        </mxCell>
        <mxCell id="5s7QA5Iz82F6_0--fALQ-55" value="Display new item" style="rounded=1;whiteSpace=wrap;html=1;fillColor=#FFFFFF;" parent="1" vertex="1">
          <mxGeometry x="960" y="1183" width="120" height="60" as="geometry" />
        </mxCell>
        <mxCell id="5s7QA5Iz82F6_0--fALQ-64" style="edgeStyle=orthogonalEdgeStyle;rounded=0;orthogonalLoop=1;jettySize=auto;html=1;entryX=0.5;entryY=0;entryDx=0;entryDy=0;" parent="1" source="5s7QA5Iz82F6_0--fALQ-57" target="5s7QA5Iz82F6_0--fALQ-58" edge="1">
          <mxGeometry relative="1" as="geometry" />
        </mxCell>
        <mxCell id="5s7QA5Iz82F6_0--fALQ-57" value="Select option to take part in wellbeing quiz" style="rounded=1;whiteSpace=wrap;html=1;fillColor=#FFFFFF;" parent="1" vertex="1">
          <mxGeometry x="470" y="890" width="120" height="60" as="geometry" />
        </mxCell>
        <mxCell id="5s7QA5Iz82F6_0--fALQ-63" style="edgeStyle=orthogonalEdgeStyle;rounded=0;orthogonalLoop=1;jettySize=auto;html=1;entryX=0.5;entryY=0;entryDx=0;entryDy=0;" parent="1" source="5s7QA5Iz82F6_0--fALQ-58" target="5s7QA5Iz82F6_0--fALQ-61" edge="1">
          <mxGeometry relative="1" as="geometry">
            <mxPoint x="1260" y="1060" as="targetPoint" />
          </mxGeometry>
        </mxCell>
        <mxCell id="5s7QA5Iz82F6_0--fALQ-58" value="Complete wellbeing quiz" style="rounded=1;whiteSpace=wrap;html=1;fillColor=#FFFFFF;" parent="1" vertex="1">
          <mxGeometry x="470" y="990" width="120" height="60" as="geometry" />
        </mxCell>
        <mxCell id="oW9pXGmg9QiIXVyOaxMY-8" style="edgeStyle=orthogonalEdgeStyle;rounded=0;orthogonalLoop=1;jettySize=auto;html=1;exitX=0.5;exitY=1;exitDx=0;exitDy=0;entryX=1;entryY=0.5;entryDx=0;entryDy=0;" edge="1" parent="1" source="5s7QA5Iz82F6_0--fALQ-61" target="oW9pXGmg9QiIXVyOaxMY-5">
          <mxGeometry relative="1" as="geometry" />
        </mxCell>
        <mxCell id="5s7QA5Iz82F6_0--fALQ-61" value="Display wellbeing items" style="rounded=1;whiteSpace=wrap;html=1;fillColor=#FFFFFF;" parent="1" vertex="1">
          <mxGeometry x="1210" y="1183" width="120" height="60" as="geometry" />
        </mxCell>
        <mxCell id="DjvW2KqbD2a2FRJsJdx9-4" style="edgeStyle=orthogonalEdgeStyle;rounded=0;orthogonalLoop=1;jettySize=auto;html=1;entryX=1;entryY=0.617;entryDx=0;entryDy=0;entryPerimeter=0;exitX=0.5;exitY=1;exitDx=0;exitDy=0;" parent="1" source="DjvW2KqbD2a2FRJsJdx9-2" target="5s7QA5Iz82F6_0--fALQ-10" edge="1">
          <mxGeometry relative="1" as="geometry">
            <Array as="points">
              <mxPoint x="550" y="277" />
            </Array>
          </mxGeometry>
        </mxCell>
        <mxCell id="DjvW2KqbD2a2FRJsJdx9-2" value="Log into app" style="rounded=1;whiteSpace=wrap;html=1;fillColor=#FFFFFF;" parent="1" vertex="1">
          <mxGeometry x="490" y="140" width="120" height="60" as="geometry" />
        </mxCell>
        <mxCell id="ot3V4lF8dosWhzT56lmg-1" value="" style="ellipse;html=1;shape=endState;fillColor=#000000;strokeColor=#ff0000;" parent="1" vertex="1">
          <mxGeometry x="1005" y="1410" width="30" height="30" as="geometry" />
        </mxCell>
        <mxCell id="oW9pXGmg9QiIXVyOaxMY-1" value="" style="rhombus;whiteSpace=wrap;html=1;" vertex="1" parent="1">
          <mxGeometry x="280" y="40" width="80" height="80" as="geometry" />
        </mxCell>
        <mxCell id="oW9pXGmg9QiIXVyOaxMY-9" style="edgeStyle=orthogonalEdgeStyle;rounded=0;orthogonalLoop=1;jettySize=auto;html=1;exitX=0.5;exitY=1;exitDx=0;exitDy=0;entryX=0.5;entryY=0;entryDx=0;entryDy=0;" edge="1" parent="1" source="oW9pXGmg9QiIXVyOaxMY-5" target="ot3V4lF8dosWhzT56lmg-1">
          <mxGeometry relative="1" as="geometry" />
        </mxCell>
        <mxCell id="oW9pXGmg9QiIXVyOaxMY-5" value="" style="rhombus;whiteSpace=wrap;html=1;" vertex="1" parent="1">
          <mxGeometry x="980" y="1280" width="80" height="80" as="geometry" />
        </mxCell>
        <mxCell id="oW9pXGmg9QiIXVyOaxMY-14" value="" style="endArrow=none;html=1;rounded=0;" edge="1" parent="1">
          <mxGeometry width="50" height="50" relative="1" as="geometry">
            <mxPoint x="-30" y="1480" as="sourcePoint" />
            <mxPoint x="-30" y="-190" as="targetPoint" />
          </mxGeometry>
        </mxCell>
        <mxCell id="oW9pXGmg9QiIXVyOaxMY-15" value="" style="endArrow=none;html=1;rounded=0;" edge="1" parent="1">
          <mxGeometry width="50" height="50" relative="1" as="geometry">
            <mxPoint x="670" y="1480" as="sourcePoint" />
            <mxPoint x="670" y="-190" as="targetPoint" />
          </mxGeometry>
        </mxCell>
        <mxCell id="oW9pXGmg9QiIXVyOaxMY-17" value="User" style="text;html=1;strokeColor=default;fillColor=none;align=center;verticalAlign=middle;whiteSpace=wrap;rounded=0;fontSize=15;" vertex="1" parent="1">
          <mxGeometry x="-30" y="-230" width="700" height="40" as="geometry" />
        </mxCell>
        <mxCell id="oW9pXGmg9QiIXVyOaxMY-18" value="System" style="text;html=1;strokeColor=default;fillColor=none;align=center;verticalAlign=middle;whiteSpace=wrap;rounded=0;fontSize=15;" vertex="1" parent="1">
          <mxGeometry x="670" y="-230" width="700" height="40" as="geometry" />
        </mxCell>
        <mxCell id="oW9pXGmg9QiIXVyOaxMY-19" value="" style="endArrow=none;html=1;rounded=0;" edge="1" parent="1">
          <mxGeometry width="50" height="50" relative="1" as="geometry">
            <mxPoint x="1370" y="1480" as="sourcePoint" />
            <mxPoint x="1370" y="-196" as="targetPoint" />
          </mxGeometry>
        </mxCell>
        <mxCell id="oW9pXGmg9QiIXVyOaxMY-24" value="" style="endArrow=none;html=1;rounded=0;" edge="1" parent="1">
          <mxGeometry width="50" height="50" relative="1" as="geometry">
            <mxPoint x="-30" y="1480" as="sourcePoint" />
            <mxPoint x="1370" y="1480" as="targetPoint" />
          </mxGeometry>
        </mxCell>
      </root>
    </mxGraphModel>
  </diagram>
</mxfile>
